<svg width="21" height="21" viewBox="0 0 21 21" fill="none" xmlns="http://www.w3.org/2000/svg">
<g clip-path="url(#clip0_124_666)">
<path d="M3.65835 8.16731H8.66502C9.10749 8.16731 9.53184 8.34308 9.84471 8.65595C10.1576 8.96883 10.3334 9.39317 10.3334 9.83564V18.1798C10.3334 18.6223 10.1576 19.0466 9.84471 19.3595C9.53184 19.6724 9.10749 19.8481 8.66502 19.8481H3.65835C2.73669 19.8481 1.99002 19.1015 1.99002 18.1798V9.83564C1.99002 9.39317 2.16579 8.96883 2.47866 8.65595C2.79154 8.34308 3.21588 8.16731 3.65835 8.16731ZM3.65835 8.16731H8.66669V6.31064C8.66658 6.22565 8.64972 6.14152 8.61706 6.06305C8.58441 5.98458 8.53661 5.91331 8.4764 5.85333C8.41618 5.79335 8.34474 5.74582 8.26614 5.71348C8.18755 5.68113 8.10335 5.66459 8.01835 5.66481H4.30502C4.13366 5.66481 3.9693 5.73283 3.84805 5.85392C3.7268 5.97501 3.65857 6.13928 3.65835 6.31064V8.16731ZM12 2.76648L11.6275 2.02064C11.4893 1.74356 11.2765 1.51048 11.0132 1.34753C10.7499 1.18459 10.4464 1.09823 10.1367 1.09814H2.82419M6.16169 12.339V15.6765M4.49335 14.0081H7.83002M6.16169 1.09814V5.66481M18.6767 12.7565C18.6767 13.5309 18.369 14.2736 17.8214 14.8212C17.2738 15.3688 16.5311 15.6765 15.7567 15.6765C14.9823 15.6765 14.2395 15.3688 13.6919 14.8212C13.1443 14.2736 12.8367 13.5309 12.8367 12.7565C12.8367 10.5665 15.7534 6.91564 15.7534 6.91564C15.7534 6.91564 18.6767 10.5665 18.6767 12.7565Z" stroke="#171E1D" stroke-width="1.5" stroke-linecap="round" stroke-linejoin="round"/>
</g>
<defs>
<clipPath id="clip0_124_666">
<rect width="20" height="20" fill="white" transform="translate(0.333344 0.473145)"/>
</clipPath>
</defs>
</svg>
