<svg width="21" height="21" viewBox="0 0 21 21" fill="none" xmlns="http://www.w3.org/2000/svg">
<path d="M19.3571 16.4532C18.8831 15.3305 18.1953 14.3107 17.3319 13.4507C16.4712 12.5881 15.4516 11.9004 14.3294 11.4256C14.3194 11.4205 14.3093 11.418 14.2993 11.413C15.8646 10.2823 16.8822 8.44064 16.8822 6.36275C16.8822 2.92054 14.0932 0.131592 10.651 0.131592C7.20882 0.131592 4.41988 2.92054 4.41988 6.36275C4.41988 8.44064 5.43747 10.2823 7.00279 11.4155C6.99274 11.4205 6.98269 11.423 6.97264 11.4281C5.84701 11.9029 4.83696 12.5839 3.97013 13.4532C3.10759 14.3139 2.41989 15.3335 1.945 16.4557C1.47848 17.5543 1.22687 18.7322 1.2038 19.9256C1.20313 19.9524 1.20783 19.9791 1.21763 20.004C1.22743 20.029 1.24213 20.0518 1.26086 20.071C1.2796 20.0902 1.30198 20.1054 1.3267 20.1158C1.35142 20.1262 1.37798 20.1316 1.4048 20.1316H2.91234C3.02289 20.1316 3.11083 20.0437 3.11335 19.9356C3.1636 17.9959 3.94249 16.1793 5.31938 14.8024C6.744 13.3778 8.63596 12.5939 10.651 12.5939C12.6661 12.5939 14.5581 13.3778 15.9827 14.8024C17.3596 16.1793 18.1385 17.9959 18.1887 19.9356C18.1912 20.0462 18.2792 20.1316 18.3897 20.1316H19.8973C19.9241 20.1316 19.9506 20.1262 19.9754 20.1158C20.0001 20.1054 20.0225 20.0902 20.0412 20.071C20.0599 20.0518 20.0746 20.029 20.0844 20.004C20.0942 19.9791 20.0989 19.9524 20.0983 19.9256C20.0731 18.7246 19.8244 17.5562 19.3571 16.4532ZM10.651 10.6844C9.49777 10.6844 8.41234 10.2346 7.59576 9.41802C6.77917 8.60144 6.32943 7.51601 6.32943 6.36275C6.32943 5.20948 6.77917 4.12405 7.59576 3.30747C8.41234 2.49089 9.49777 2.04114 10.651 2.04114C11.8043 2.04114 12.8897 2.49089 13.7063 3.30747C14.5229 4.12405 14.9726 5.20948 14.9726 6.36275C14.9726 7.51601 14.5229 8.60144 13.7063 9.41802C12.8897 10.2346 11.8043 10.6844 10.651 10.6844Z" fill="#787878"/>
</svg>
