<svg width="21" height="21" viewBox="0 0 21 21" fill="none" xmlns="http://www.w3.org/2000/svg">
<path d="M10.651 0.9104C7.91363 0.9104 5.68662 3.13741 5.68662 5.87475V8.85336H4.69375C3.59861 8.85336 2.70801 9.74397 2.70801 10.8391V18.7821C2.70801 19.8772 3.59861 20.7678 4.69375 20.7678H16.6082C17.7033 20.7678 18.5939 19.8772 18.5939 18.7821V10.8391C18.5939 9.74397 17.7033 8.85336 16.6082 8.85336H15.6153V5.87475C15.6153 3.13741 13.3883 0.9104 10.651 0.9104ZM16.6082 10.8391L16.6102 18.7821H4.69375V10.8391H16.6082ZM7.67236 8.85336V5.87475C7.67236 4.23254 9.00876 2.89614 10.651 2.89614C12.2932 2.89614 13.6296 4.23254 13.6296 5.87475V8.85336H7.67236Z" fill="#787878"/>
</svg>
