<svg width="21" height="21" viewBox="0 0 21 21" fill="none" xmlns="http://www.w3.org/2000/svg">
<path d="M10.651 0.61792C7.91363 0.61792 5.68662 2.84493 5.68662 5.58227V8.56088H4.69375C3.59861 8.56088 2.70801 9.45149 2.70801 10.5466V18.4896C2.70801 19.5847 3.59861 20.4753 4.69375 20.4753H16.6082C17.7033 20.4753 18.5939 19.5847 18.5939 18.4896V10.5466C18.5939 9.45149 17.7033 8.56088 16.6082 8.56088H15.6153V5.58227C15.6153 2.84493 13.3883 0.61792 10.651 0.61792ZM16.6082 10.5466L16.6102 18.4896H4.69375V10.5466H16.6082ZM7.67236 8.56088V5.58227C7.67236 3.94006 9.00876 2.60366 10.651 2.60366C12.2932 2.60366 13.6296 3.94006 13.6296 5.58227V8.56088H7.67236Z" fill="#787878"/>
</svg>
