<svg width="20" height="21" viewBox="0 0 20 21" fill="none" xmlns="http://www.w3.org/2000/svg">
<path d="M13.541 12.3599C12.5686 11.4954 11.3127 11.0179 10.0115 11.0179C8.71039 11.0179 7.4545 11.4954 6.48203 12.3599C6.39986 12.431 6.33263 12.5177 6.28426 12.615C6.23588 12.7123 6.20732 12.8183 6.20023 12.9267C6.19315 13.0351 6.20767 13.1439 6.24297 13.2467C6.27827 13.3494 6.33363 13.4442 6.40585 13.5254C6.47807 13.6066 6.5657 13.6726 6.66365 13.7197C6.76161 13.7667 6.86793 13.7938 6.97645 13.7994C7.08497 13.805 7.19353 13.789 7.29581 13.7523C7.39809 13.7156 7.49206 13.659 7.57227 13.5857C8.24438 12.9883 9.11233 12.6584 10.0115 12.6584C10.9107 12.6584 11.7787 12.9883 12.4508 13.5857C12.6134 13.7302 12.8269 13.8043 13.0441 13.7915C13.2613 13.7787 13.4646 13.6802 13.6092 13.5175C13.7538 13.3548 13.8278 13.1414 13.815 12.9242C13.8022 12.7069 13.7037 12.5037 13.541 12.3591V12.3599Z" fill="#171E1D"/>
<path d="M10.011 7.64893C7.80852 7.6459 5.68783 8.48299 4.08127 9.98956C3.99993 10.0624 3.93396 10.1508 3.88722 10.2495C3.84048 10.3482 3.81392 10.4552 3.80909 10.5643C3.80426 10.6734 3.82127 10.7824 3.8591 10.8848C3.89694 10.9872 3.95485 11.0811 4.02944 11.1609C4.10403 11.2406 4.19379 11.3047 4.29346 11.3493C4.39314 11.3939 4.50072 11.4182 4.60989 11.4207C4.71907 11.4232 4.82764 11.4038 4.92924 11.3638C5.03085 11.3238 5.12344 11.2639 5.20159 11.1876C6.50607 9.96802 8.22517 9.28957 10.011 9.28957C11.7968 9.28957 13.5159 9.96802 14.8203 11.1876C14.8985 11.2639 14.9911 11.3238 15.0927 11.3638C15.1943 11.4038 15.3029 11.4232 15.412 11.4207C15.5212 11.4182 15.6288 11.3939 15.7285 11.3493C15.8281 11.3047 15.9179 11.2406 15.9925 11.1609C16.0671 11.0811 16.125 10.9872 16.1628 10.8848C16.2007 10.7824 16.2177 10.6734 16.2128 10.5643C16.208 10.4552 16.1814 10.3482 16.1347 10.2495C16.088 10.1508 16.022 10.0624 15.9406 9.98956C14.3341 8.48299 12.2134 7.6459 10.011 7.64893Z" fill="#171E1D"/>
<path d="M18.0469 7.34267C15.8353 5.36938 12.9749 4.27881 10.011 4.27881C7.04699 4.27881 4.18663 5.36938 1.97502 7.34267C1.8919 7.41367 1.82381 7.50057 1.77475 7.59826C1.72569 7.69594 1.69665 7.80245 1.68934 7.91152C1.68202 8.02059 1.69659 8.13003 1.73216 8.23339C1.76774 8.33675 1.82362 8.43196 1.89652 8.51342C1.96941 8.59488 2.05786 8.66095 2.15665 8.70775C2.25544 8.75455 2.36259 8.78113 2.4718 8.78592C2.58101 8.79072 2.69008 8.77365 2.79259 8.7357C2.89511 8.69775 2.98901 8.63969 3.06877 8.56494C4.97956 6.86079 7.45044 5.91902 10.0108 5.91902C12.5711 5.91902 15.042 6.86079 16.9528 8.56494C17.1149 8.70998 17.3281 8.78465 17.5453 8.77252C17.7626 8.7604 17.9661 8.66247 18.1111 8.50029C18.2562 8.3381 18.3309 8.12494 18.3187 7.9077C18.3066 7.69046 18.2087 7.48693 18.0465 7.34189L18.0469 7.34267Z" fill="#171E1D"/>
<path d="M10.0109 17.0907C10.7013 17.0907 11.2609 16.5311 11.2609 15.8407C11.2609 15.1503 10.7013 14.5907 10.0109 14.5907C9.32057 14.5907 8.76093 15.1503 8.76093 15.8407C8.76093 16.5311 9.32057 17.0907 10.0109 17.0907Z" fill="#171E1D"/>
</svg>
