<svg width="157" height="41" viewBox="0 0 157 41" fill="none" xmlns="http://www.w3.org/2000/svg">
<path d="M83.1912 34.724C81.6525 34.724 80.405 33.4766 80.405 31.9378V6.16963C80.405 4.62067 81.6607 3.36499 83.2097 3.36499C84.7586 3.36499 86.0143 4.62067 86.0143 6.16963V14.9629C86.0143 15.5443 85.3721 15.8962 84.8821 15.5834L84.8193 15.5433C84.3901 15.2693 84.363 14.6535 84.7874 14.3723C85.7488 13.7351 86.8056 13.2019 87.9577 12.7727C89.4594 12.2132 90.9611 11.9335 92.4628 11.9335C94.1412 11.9335 95.5987 12.2132 96.8354 12.7727C98.0721 13.3321 99.029 14.2449 99.7063 15.5111C100.413 16.7478 100.766 18.4261 100.766 20.5462V31.9193C100.766 33.4683 99.5106 34.724 97.9616 34.724C96.4127 34.724 95.157 33.4683 95.157 31.9193V21.5179C95.157 19.8689 94.7595 18.647 93.9645 17.852C93.1989 17.0275 92.0358 16.6153 90.4752 16.6153C89.6802 16.6153 88.8852 16.733 88.0902 16.9686C87.4528 17.1575 86.8816 17.3842 86.3767 17.6488C86.1482 17.7685 86.0139 18.0096 86.0132 18.2675L85.9774 31.9451C85.9734 33.481 84.7272 34.724 83.1912 34.724Z" fill="#171E1D"/>
<path d="M113.601 35.3865C109.95 35.3865 107.211 34.3706 105.386 32.3389C103.56 30.3072 102.647 27.3774 102.647 23.5496C102.647 19.4567 103.575 16.4828 105.43 14.6277C107.314 12.7727 110.023 11.8452 113.557 11.8452C116.03 11.8452 118.091 12.2868 119.74 13.1702C121.389 14.0241 122.611 15.3197 123.406 17.0569C124.23 18.7942 124.643 20.9584 124.643 23.5496C124.643 27.3774 123.686 30.3072 121.772 32.3389C119.887 34.3706 117.164 35.3865 113.601 35.3865ZM113.601 30.7931C114.896 30.7931 115.942 30.4986 116.737 29.9097C117.561 29.3208 118.165 28.4964 118.548 27.4363C118.93 26.3469 119.122 25.0513 119.122 23.5496C119.122 21.8712 118.916 20.502 118.503 19.442C118.121 18.382 117.517 17.6017 116.693 17.1011C115.897 16.6005 114.867 16.3503 113.601 16.3503C112.305 16.3503 111.26 16.6153 110.465 17.1453C109.67 17.6753 109.081 18.4703 108.698 19.5303C108.345 20.5904 108.168 21.9301 108.168 23.5496C108.168 25.9052 108.595 27.7013 109.449 28.938C110.303 30.1747 111.687 30.7931 113.601 30.7931Z" fill="#171E1D"/>
<path d="M133.078 35.3865C131.488 35.3865 130.133 35.2098 129.015 34.8565C128.322 34.656 127.646 34.4272 126.987 34.1703C126.25 33.8826 125.79 33.156 125.79 32.3641V31.1063C125.79 30.0405 126.981 29.389 127.91 29.9097C128.676 30.2925 129.486 30.6017 130.34 30.8372C131.223 31.0728 132.165 31.1906 133.166 31.1906C134.344 31.1906 135.213 30.9697 135.772 30.5281C136.361 30.0569 136.656 29.4975 136.656 28.8497C136.656 28.2313 136.435 27.7602 135.993 27.4363C135.551 27.083 134.977 26.7885 134.271 26.553C133.564 26.3174 132.813 26.0819 132.018 25.8463C131.282 25.6696 130.531 25.4341 129.765 25.1396C129.029 24.8452 128.352 24.4477 127.734 23.9471C127.115 23.4465 126.615 22.8135 126.232 22.0479C125.879 21.2529 125.702 20.2959 125.702 19.177C125.702 17.852 125.967 16.733 126.497 15.8203C127.027 14.9075 127.719 14.1713 128.573 13.6119C129.427 13.0524 130.369 12.6549 131.4 12.4193C132.43 12.1543 133.431 12.0218 134.403 12.0218C136.081 12.0807 137.436 12.2868 138.466 12.6402C139.126 12.8474 139.761 13.0968 140.372 13.3884C141.011 13.6932 141.386 14.3549 141.393 15.0626L141.393 15.1119C141.408 16.6187 139.794 17.5922 138.422 16.9686C137.451 16.4975 136.346 16.2619 135.11 16.2619C133.961 16.2619 133.063 16.468 132.415 16.8803C131.797 17.2631 131.488 17.8078 131.488 18.5145C131.488 19.1328 131.679 19.6334 132.062 20.0162C132.445 20.399 132.945 20.6934 133.564 20.8995C134.182 21.1056 134.859 21.3118 135.596 21.5179C136.332 21.724 137.097 21.9596 137.892 22.2246C138.687 22.4601 139.423 22.8135 140.101 23.2846C140.778 23.7557 141.323 24.3888 141.735 25.1838C142.177 25.9494 142.397 26.9799 142.397 28.2755C142.368 29.9833 141.912 31.3672 141.028 32.4273C140.145 33.4578 138.982 34.2087 137.539 34.6798C136.126 35.1509 134.639 35.3865 133.078 35.3865Z" fill="#171E1D"/>
<path d="M152.893 35.4307C150.596 35.4307 148.844 34.8712 147.637 33.7523C146.43 32.6039 145.826 30.955 145.826 28.8055V17.6164C145.826 17.2099 145.497 16.8803 145.09 16.8803H143.117C142.711 16.8803 142.381 16.5507 142.381 16.1441V13.1996C142.381 12.7931 142.711 12.4635 143.117 12.4635H145.09C145.497 12.4635 145.826 12.1339 145.826 11.7274V9.2172C145.826 7.61945 147.121 6.32422 148.719 6.32422C150.317 6.32422 151.612 7.61945 151.612 9.2172V11.7274C151.612 12.1339 151.942 12.4635 152.348 12.4635H154.571C155.791 12.4635 156.78 13.4522 156.78 14.6719C156.78 15.8916 155.791 16.8803 154.571 16.8803H152.348C151.942 16.8803 151.612 17.2099 151.612 17.6164V27.9222C151.612 28.835 151.789 29.5122 152.142 29.9539C152.496 30.3956 153.114 30.6164 153.997 30.6164C154.468 30.6164 154.954 30.5428 155.455 30.3956C156.049 30.1973 156.78 30.6168 156.78 31.2437V33.4281C156.78 34.1682 156.367 34.8673 155.655 35.0706C155.392 35.1458 155.119 35.2069 154.836 35.254C154.159 35.3718 153.511 35.4307 152.893 35.4307Z" fill="#171E1D"/>
<path d="M5.56512 31.9413C5.56512 33.4781 4.31932 34.7238 2.78256 34.7238C1.24579 34.7238 0 33.4781 0 31.9413V6.85409C0 5.31733 1.24579 4.07153 2.78256 4.07153C4.31932 4.07153 5.56512 5.31733 5.56512 6.85409V31.9413Z" fill="#171E1D"/>
<path d="M18.4013 35.3864C14.7501 35.3864 12.0117 34.3705 10.1862 32.3388C8.36056 30.3071 7.44776 27.3773 7.44776 23.5494C7.44776 19.4566 8.37528 16.4826 10.2303 14.6276C12.1148 12.7726 14.8238 11.845 18.3572 11.845C20.8305 11.845 22.8917 12.2867 24.5406 13.1701C26.1895 14.024 27.4115 15.3195 28.2065 17.0568C29.031 18.7941 29.4432 20.9583 29.4432 23.5494C29.4432 27.3773 28.4863 30.3071 26.5723 32.3388C24.6878 34.3705 21.9642 35.3864 18.4013 35.3864ZM18.4013 30.7929C19.6969 30.7929 20.7422 30.4985 21.5372 29.9096C22.3617 29.3207 22.9653 28.4962 23.3481 27.4362C23.7309 26.3467 23.9223 25.0511 23.9223 23.5494C23.9223 21.8711 23.7162 20.5019 23.3039 19.4419C22.9211 18.3818 22.3175 17.6015 21.4931 17.101C20.698 16.6004 19.6675 16.3501 18.4013 16.3501C17.1057 16.3501 16.0604 16.6151 15.2654 17.1451C14.4704 17.6752 13.8815 18.4702 13.4987 19.5302C13.1454 20.5902 12.9687 21.93 12.9687 23.5494C12.9687 25.9051 13.3957 27.7012 14.2496 28.9379C15.1035 30.1746 16.4874 30.7929 18.4013 30.7929Z" fill="#171E1D"/>
<path d="M41.4561 35.2097C39.9839 35.2097 38.5705 35.0036 37.216 34.5913C35.8616 34.1791 34.6543 33.5166 33.5943 32.6038C32.5343 31.691 31.6951 30.5132 31.0767 29.0704C30.4584 27.6276 30.1492 25.8756 30.1492 23.8145C30.1492 21.665 30.4437 19.8394 31.0326 18.3377C31.6215 16.836 32.4312 15.614 33.4618 14.6718C34.4924 13.7001 35.6849 13.0081 37.0394 12.5959C38.4233 12.1542 39.8808 11.9334 41.412 11.9334C42.5898 11.9334 43.797 12.0511 45.0337 12.2867C45.7339 12.4201 46.3917 12.5865 47.0069 12.786C47.839 13.0557 48.3463 13.8642 48.3463 14.7389V14.9728C48.3463 16.4742 46.7943 17.4852 45.3429 17.101C44.3417 16.8065 43.3112 16.6593 42.2511 16.6593C40.19 16.6593 38.5852 17.1746 37.4369 18.2052C36.2885 19.2357 35.7143 20.9288 35.7143 23.2844C35.7143 25.6989 36.2296 27.4951 37.2602 28.6729C38.3202 29.8507 40.0575 30.4396 42.472 30.4396C43.5614 30.4396 44.6215 30.2776 45.652 29.9537C46.7022 29.5937 47.8503 30.4444 47.973 31.5477C48.0034 31.8201 48.0482 32.0853 48.1033 32.3642C48.2598 33.1566 47.8846 33.967 47.1271 34.2471C46.4893 34.4829 45.8357 34.6712 45.1662 34.8122C44.0473 35.0772 42.8106 35.2097 41.4561 35.2097Z" fill="#171E1D"/>
<circle cx="61.4387" cy="10.5842" r="2.98166" fill="#00C29F"/>
<path d="M78.0312 31.9414C78.0312 33.4782 76.7854 34.724 75.2486 34.724C73.7119 34.724 72.4661 33.4782 72.4661 31.9414V6.11337C72.4661 4.57661 73.7119 3.33081 75.2486 3.33081C76.7854 3.33081 78.0312 4.5766 78.0312 6.11337V31.9414Z" fill="#171E1D"/>
<path d="M57.3906 39.1539C52.43 38.4188 48.9864 33.8005 49.7297 28.7851C49.9318 27.4211 50.0684 26.6302 50.2515 25.2635C50.3499 24.5028 51.6447 20.924 52.7672 19.8002C54.568 17.9975 55.3226 17.7234 57.26 17.0039C59.593 16.1374 62.7313 16.5979 64.6936 15.2808C66.0399 14.3805 66.9497 12.9409 67.1883 11.3306C67.2111 11.177 67.2272 11.0331 67.2365 10.8907C67.2441 10.7956 67.2479 10.6999 67.2503 10.604C67.253 10.5068 67.2531 10.4092 67.2505 10.3126C67.2436 10.0861 67.2245 9.86303 67.1936 9.64879C66.9185 7.74741 65.7272 6.123 64.0081 5.3052C63.8156 5.21338 63.6103 5.1289 63.3966 5.05766C63.3059 5.02708 63.2136 4.99889 63.1208 4.97328C63.0294 4.94787 62.9378 4.92374 62.8443 4.90329C62.7069 4.87106 62.566 4.84491 62.4154 4.8226C62.2648 4.80028 62.1211 4.78426 61.9803 4.77526C61.8862 4.76791 61.7915 4.76442 61.6966 4.76223C61.6004 4.75985 61.5039 4.76005 61.4082 4.76302C61.3361 4.76552 61.2638 4.76931 61.1941 4.77348C61.1244 4.77765 61.0542 4.7844 60.9865 4.79282C60.9189 4.79995 60.8526 4.80727 60.787 4.81865C60.6511 4.83807 60.5265 4.86048 60.4064 4.88752C58.5161 5.29573 56.9237 6.68565 56.2537 8.51421L56.2527 8.52067L56.2505 8.52693C56.234 8.568 56.2159 8.61938 56.1973 8.67465C56.1667 8.76638 56.1385 8.85978 56.1129 8.95356C56.0875 9.04606 56.0633 9.13873 56.0428 9.23327C56.0352 9.26644 56.0279 9.29832 56.0217 9.33168C55.668 9.95837 54.9573 10.3093 54.2516 10.2047C53.4003 10.0786 52.7769 9.35721 52.7672 8.48943C52.8345 8.17633 52.9202 7.862 53.0201 7.55769L53.0282 7.5378C54.4356 3.30384 58.6283 0.701061 62.9929 1.34784C65.3871 1.70262 67.5027 2.98664 68.9512 4.96168C70.4009 6.9369 71.0009 9.35717 70.6422 11.7778L67.7358 31.3905C66.9926 36.4059 62.3512 39.889 57.3906 39.1539Z" fill="#00C29F"/>
</svg>
