<svg width="20" height="21" viewBox="0 0 20 21" fill="none" xmlns="http://www.w3.org/2000/svg">
<path d="M11.7292 17.3481C11.5764 17.5287 11.3856 17.6295 11.1567 17.6506C10.9278 17.6718 10.7228 17.6056 10.5417 17.4523L7.35419 14.7856C6.65974 14.2023 6.15974 13.494 5.85419 12.6606C5.54863 11.8273 5.47224 10.9731 5.62502 10.0981L4.45835 9.11898C4.29169 8.9662 4.19808 8.78203 4.17752 8.56648C4.15696 8.35092 4.21558 8.15314 4.35335 7.97314H3.33335V9.63981C3.33335 10.0981 3.17002 10.4906 2.84335 10.8173C2.51669 11.144 2.12446 11.307 1.66669 11.3065V2.97314C2.12502 2.97314 2.51752 3.13648 2.84419 3.46314C3.17085 3.78981 3.33391 4.18203 3.33335 4.63981V6.30648H5.72919L7.02085 4.74398C7.17363 4.56342 7.36474 4.46259 7.59419 4.44148C7.82363 4.42037 8.02835 4.48648 8.20835 4.63981L9.35419 5.59814C10.2014 5.2787 11.0625 5.19537 11.9375 5.34814C12.8125 5.50092 13.5972 5.86898 14.2917 6.45231L17.4792 9.11898C17.6597 9.27176 17.7606 9.46287 17.7817 9.69231C17.8028 9.92176 17.7367 10.1195 17.5834 10.2856L11.7292 17.3481ZM10.9792 15.619L15.7917 9.84814L13.2084 7.72314C12.625 7.25092 11.962 7.02176 11.2192 7.03564C10.4764 7.04953 9.75058 7.20231 9.04169 7.49398L7.77085 6.45231L6.16669 8.36898L7.41669 9.41064C7.25002 10.1606 7.22919 10.9073 7.35419 11.6506C7.47919 12.394 7.83335 13.0084 8.41669 13.494L10.9792 15.619Z" fill="#171E1D"/>
</svg>
