<svg width="20" height="22" viewBox="0 0 20 22" fill="none" xmlns="http://www.w3.org/2000/svg">
<path d="M16.6667 10.9732H18.3334V12.7232H16.6667C15.5167 12.7232 14.3834 12.4169 13.3334 11.8482C11.25 12.9857 8.75002 12.9857 6.66669 11.8482C5.61669 12.4169 4.47502 12.7232 3.33335 12.7232H1.66669V10.9732H3.33335C4.49169 10.9732 5.65002 10.5619 6.66669 9.80945C8.70002 11.3057 11.3 11.3057 13.3334 9.80945C14.35 10.5619 15.5084 10.9732 16.6667 10.9732ZM16.6667 5.7232H18.3334V7.4732H16.6667C15.5167 7.4732 14.3834 7.16695 13.3334 6.5982C11.25 7.7357 8.75002 7.7357 6.66669 6.5982C5.61669 7.16695 4.47502 7.4732 3.33335 7.4732H1.66669V5.7232H3.33335C4.49169 5.7232 5.65002 5.31195 6.66669 4.55945C8.70002 6.0557 11.3 6.0557 13.3334 4.55945C14.35 5.31195 15.5084 5.7232 16.6667 5.7232ZM16.6667 16.2232H18.3334V17.9732H16.6667C15.5167 17.9732 14.3834 17.6669 13.3334 17.0982C11.25 18.2357 8.75002 18.2357 6.66669 17.0982C5.61669 17.6669 4.47502 17.9732 3.33335 17.9732H1.66669V16.2232H3.33335C4.49169 16.2232 5.65002 15.8119 6.66669 15.0594C8.70002 16.5557 11.3 16.5557 13.3334 15.0594C14.35 15.8119 15.5084 16.2232 16.6667 16.2232Z" fill="#171E1D"/>
</svg>
